<svg width="123" height="69" viewBox="0 0 123 69" fill="none" xmlns="http://www.w3.org/2000/svg">
<path d="M37.7267 31V28.6026L40.0218 28.164V12.5663L37.7267 12.1277V9.71567H46.293V12.1277L43.998 12.5663V18.9691H52.9882V12.5663L50.6932 12.1277V9.71567H52.9882H56.9644H59.2595V12.1277L56.9644 12.5663V28.164L59.2595 28.6026V31H50.6932V28.6026L52.9882 28.164V22.0389H43.998V28.164L46.293 28.6026V31H37.7267ZM61.1014 31V28.6026L63.3819 28.164V12.5663L61.1014 12.1277V9.71567H63.3819H69.1854L75.2081 24.8311H75.2959L81.1286 9.71567H89.2564V12.1277L86.9613 12.5663V28.164L89.2564 28.6026V31H80.69V28.6026L83.1021 28.164V23.647L83.1605 14.1889L83.0874 14.1743L76.5969 30.6053H73.6586L67.0072 14.2766L66.9195 14.2912L67.1534 23.2961V28.164L69.6678 28.6026V31H61.1014Z" fill="#F19100"/>
<path d="M47.5648 61.2454C45.4793 61.2454 43.6958 60.802 42.2145 59.9151C40.7332 59.0283 39.5978 57.8003 38.8084 56.2313C38.019 54.6623 37.6244 52.8398 37.6244 50.764V50.1208C37.6244 47.9865 38.019 46.1154 38.8084 44.5074C39.5978 42.8896 40.704 41.6276 42.1268 40.7212C43.5594 39.8051 45.2405 39.3471 47.1701 39.3471C48.7294 39.3471 50.1572 39.5517 51.4533 39.9611C52.7592 40.3704 53.8946 40.9746 54.8594 41.7737V46.4078H51.8626L51.3218 43.4987C50.9222 43.1771 50.3959 42.9237 49.743 42.7385C49.09 42.5436 48.3347 42.4462 47.4771 42.4462C46.2882 42.4462 45.2503 42.7678 44.3634 43.411C43.4766 44.0445 42.7895 44.9362 42.3022 46.0861C41.8247 47.2361 41.5859 48.5713 41.5859 50.0916V50.764C41.5859 52.2648 41.8198 53.5707 42.2876 54.6817C42.7651 55.783 43.4522 56.6406 44.3488 57.2546C45.2551 57.8588 46.3613 58.1609 47.6672 58.1609C48.4663 58.1609 49.1826 58.0878 49.8161 57.9416C50.4593 57.7955 50.9953 57.6152 51.4241 57.4008V53.4977L48.1642 53.2784V50.457H55.4149V58.9942C54.5378 59.6471 53.4512 60.188 52.155 60.6168C50.8686 61.0359 49.3385 61.2454 47.5648 61.2454ZM58.0316 60.9384V58.541L60.1512 58.1024V47.9719L57.8708 47.5334V45.1213H63.8351L64.0105 47.0948L64.0397 47.431C64.4393 46.5832 64.9363 45.94 65.5308 45.5014C66.1253 45.0531 66.827 44.829 67.6358 44.829C67.899 44.829 68.1816 44.8533 68.4837 44.9021C68.7956 44.941 69.0587 44.9946 69.2731 45.0629L68.8199 48.7321L66.7295 48.6151C66.096 48.5859 65.5746 48.7028 65.1653 48.966C64.7658 49.2291 64.4198 49.6043 64.1274 50.0916V58.1024L66.2471 58.541V60.9384H58.0316ZM77.8248 61.2454C76.2753 61.2454 74.9499 60.9043 73.8486 60.2221C72.7474 59.5399 71.8995 58.5946 71.305 57.3861C70.7106 56.1679 70.4133 54.7695 70.4133 53.1907V52.8837C70.4133 51.3146 70.7106 49.9259 71.305 48.7175C71.8995 47.509 72.7474 46.5588 73.8486 45.8669C74.9499 45.1749 76.2655 44.829 77.7956 44.829C79.3354 44.829 80.6559 45.1749 81.7572 45.8669C82.8584 46.5491 83.7014 47.4944 84.2861 48.7028C84.8806 49.9113 85.1779 51.3049 85.1779 52.8837V53.1907C85.1779 54.7695 84.8806 56.1679 84.2861 57.3861C83.7014 58.5946 82.8584 59.5399 81.7572 60.2221C80.6559 60.9043 79.3451 61.2454 77.8248 61.2454ZM77.8248 58.1901C78.5947 58.1901 79.2282 57.9806 79.7252 57.5616C80.232 57.1425 80.6072 56.5578 80.8508 55.8074C81.0945 55.0472 81.2163 54.175 81.2163 53.1907V52.8837C81.2163 51.9091 81.0945 51.0466 80.8508 50.2962C80.6072 49.5458 80.232 48.9611 79.7252 48.542C79.2184 48.1132 78.5752 47.8988 77.7956 47.8988C77.016 47.8988 76.3727 48.1132 75.866 48.542C75.3689 48.9611 74.9986 49.5458 74.755 50.2962C74.5113 51.0466 74.3895 51.9091 74.3895 52.8837V53.1907C74.3895 54.1847 74.5113 55.0569 74.755 55.8074C74.9986 56.5578 75.3738 57.1425 75.8806 57.5616C76.3874 57.9806 77.0354 58.1901 77.8248 58.1901ZM93.905 61.2454C92.219 61.2454 90.8985 60.7143 89.9434 59.652C88.9981 58.58 88.5255 56.9184 88.5255 54.6671V47.9719L86.7713 47.5334V45.1213H88.5255H92.5017V54.6964C92.5017 55.9438 92.7063 56.8306 93.1156 57.3569C93.5347 57.8734 94.173 58.1317 95.0306 58.1317C95.7421 58.1317 96.3609 57.9904 96.8872 57.7077C97.4134 57.4251 97.8374 57.0207 98.159 56.4944V47.9719L96.2293 47.5334V45.1213H98.159H102.135V58.1024L104.021 58.541V60.9384H98.6268L98.3636 58.8626C97.8666 59.6325 97.238 60.2221 96.4779 60.6314C95.7274 61.0407 94.8698 61.2454 93.905 61.2454ZM105.497 67.0196V64.6076L107.602 64.1691V47.9719L105.293 47.5334V45.1213H111.213L111.432 46.9779C111.91 46.2859 112.49 45.7548 113.172 45.3845C113.854 45.0141 114.663 44.829 115.599 44.829C116.875 44.829 117.967 45.1798 118.873 45.8815C119.789 46.5734 120.491 47.548 120.978 48.8052C121.466 50.0623 121.709 51.5242 121.709 53.1907V53.4977C121.709 55.0472 121.466 56.4067 120.978 57.5762C120.491 58.7359 119.789 59.6374 118.873 60.2806C117.967 60.9238 116.87 61.2454 115.584 61.2454C114.707 61.2454 113.937 61.0895 113.274 60.7776C112.612 60.4657 112.042 60.0077 111.564 59.4035V64.1691L113.728 64.6076V67.0196H105.497ZM114.385 58.1901C115.535 58.1901 116.378 57.7662 116.914 56.9184C117.45 56.0705 117.718 54.9303 117.718 53.4977V53.1907C117.718 52.1479 117.597 51.2367 117.353 50.457C117.119 49.6676 116.754 49.0537 116.256 48.6151C115.759 48.1668 115.126 47.9427 114.356 47.9427C113.723 47.9427 113.167 48.0889 112.69 48.3812C112.222 48.6639 111.847 49.0634 111.564 49.5799V56.6698C111.847 57.1571 112.222 57.5323 112.69 57.7955C113.167 58.0586 113.732 58.1901 114.385 58.1901Z" fill="#00294F"/>
<rect y="24.6169" width="21.3174" height="34.6408" fill="#F19100"/>
<rect x="6.66162" y="11.2935" width="21.3174" height="35.9731" fill="url(#paint0_linear_80_115)"/>
<defs>
<linearGradient id="paint0_linear_80_115" x1="17.3203" y1="11.2935" x2="17.3203" y2="47.2666" gradientUnits="userSpaceOnUse">
<stop stop-color="#0D3152"/>
<stop offset="1" stop-color="#001A32"/>
</linearGradient>
</defs>
</svg>
